<?xml version="1.0" encoding="iso-8859-1"?>
<!-- Generator: Adobe Illustrator 19.0.0, SVG Export Plug-In . SVG Version: 6.00 Build 0)  -->
<svg version="1.1" id="Capa_1" xmlns="http://www.w3.org/2000/svg" xmlns:xlink="http://www.w3.org/1999/xlink" x="0px" y="0px"
	 viewBox="0 0 496 496" style="enable-background:new 0 0 496 496;" xml:space="preserve">
<g>
	<g>
		<path d="M64,72v-0.208C73.656,64.488,80,53.016,80,40C80,17.944,62.056,0,40,0C17.944,0,0,17.944,0,40
			c0,13.016,6.344,24.488,16,31.792V496h16V79.192C34.584,79.72,37.264,80,40,80s5.416-0.28,8-0.808V496h16v-72h432V72H64z M40,64
			c-13.232,0-24-10.768-24-24s10.768-24,24-24s24,10.768,24,24S53.232,64,40,64z M192,408H64V88h128V408z M480,408H352v-16h-16v16
			H208V88h128v288h16V88h128V408z"/>
	</g>
</g>
<g>
</g>
<g>
</g>
<g>
</g>
<g>
</g>
<g>
</g>
<g>
</g>
<g>
</g>
<g>
</g>
<g>
</g>
<g>
</g>
<g>
</g>
<g>
</g>
<g>
</g>
<g>
</g>
<g>
</g>
</svg>
